HIERARCHY
ROOT character_A_root
{
	OFFSET 0.000000 0.000000 0.000000
	CHANNELS 6 Xposition Yposition Zposition Xrotation Yrotation Zrotation
	JOINT character_A_pelvis
	{
		OFFSET 0.000000 0.000000 0.000000
		CHANNELS 3 Xrotation Yrotation Zrotation
		JOINT character_A_spine
		{
			OFFSET -0.006400 0.538076 0.000000
			CHANNELS 3 Xrotation Yrotation Zrotation
			JOINT character_A_head
			{
				OFFSET 0.012744 0.245383 0.000000
				CHANNELS 3 Xrotation Yrotation Zrotation
				JOINT character_A_nose
				{
					OFFSET -0.008787 -0.131621 -0.002605
					CHANNELS 3 Xrotation Yrotation Zrotation
					End Site
					{
						OFFSET 0.000000 0.050000 0.000000
					}
				}
			}
			JOINT character_A_left_shoulder
			{
				OFFSET 0.108057 -0.069769 0.094471
				CHANNELS 3 Xrotation Yrotation Zrotation
				JOINT character_A_left_elbow
				{
					OFFSET 0.031628 -0.239596 -0.139088
					CHANNELS 3 Xrotation Yrotation Zrotation
					JOINT character_A_left_wrist
					{
						OFFSET 0.010597 -0.101834 -0.186326
						CHANNELS 3 Xrotation Yrotation Zrotation
						End Site
						{
							OFFSET 0.000000 0.050000 0.000000
						}
					}
				}
			}
			JOINT character_A_right_shoulder
			{
				OFFSET -0.114595 -0.059038 0.102763
				CHANNELS 3 Xrotation Yrotation Zrotation
				JOINT character_A_right_elbow
				{
					OFFSET -0.054650 -0.246550 -0.079184
					CHANNELS 3 Xrotation Yrotation Zrotation
					JOINT character_A_right_wrist
					{
						OFFSET -0.039546 -0.120930 -0.167408
						CHANNELS 3 Xrotation Yrotation Zrotation
						End Site
						{
							OFFSET 0.000000 0.050000 0.000000
						}
					}
				}
			}
		}
		JOINT character_A_left_hip
		{
			OFFSET 0.064495 -0.018473 0.101805
			CHANNELS 3 Xrotation Yrotation Zrotation
			JOINT character_A_left_knee
			{
				OFFSET -0.013415 -0.404926 0.097567
				CHANNELS 3 Xrotation Yrotation Zrotation
				JOINT character_A_left_ankle
				{
					OFFSET -0.033827 -0.357830 0.207383
					CHANNELS 3 Xrotation Yrotation Zrotation
					JOINT character_A_left_big_toe
					{
						OFFSET -0.008355 -0.113888 0.066374
						CHANNELS 3 Xrotation Yrotation Zrotation
						End Site
						{
							OFFSET 0.000000 0.050000 0.000000
						}
					}
					JOINT character_A_left_small_toe
					{
						OFFSET 0.019861 -0.105049 0.045203
						CHANNELS 3 Xrotation Yrotation Zrotation
						End Site
						{
							OFFSET 0.000000 0.050000 0.000000
						}
					}
					JOINT character_A_left_heel
					{
						OFFSET -0.015740 -0.054451 0.041248
						CHANNELS 3 Xrotation Yrotation Zrotation
						End Site
						{
							OFFSET 0.000000 0.050000 0.000000
						}
					}
				}
			}
		}
		JOINT character_A_right_hip
		{
			OFFSET -0.060818 -0.017714 0.289385
			CHANNELS 3 Xrotation Yrotation Zrotation
			JOINT character_A_right_knee
			{
				OFFSET 0.024497 -0.400024 0.102706
				CHANNELS 3 Xrotation Yrotation Zrotation
				JOINT character_A_right_ankle
				{
					OFFSET 0.016037 -0.354408 0.210815
					CHANNELS 3 Xrotation Yrotation Zrotation
					JOINT character_A_right_big_toe
					{
						OFFSET -0.000881 -0.112993 0.055364
						CHANNELS 3 Xrotation Yrotation Zrotation
						End Site
						{
							OFFSET 0.000000 0.050000 0.000000
						}
					}
					JOINT character_A_right_small_toe
					{
						OFFSET -0.021559 -0.104872 0.042888
						CHANNELS 3 Xrotation Yrotation Zrotation
						End Site
						{
							OFFSET 0.000000 0.050000 0.000000
						}
					}
					JOINT character_A_right_heel
					{
						OFFSET 0.008712 -0.057795 0.038858
						CHANNELS 3 Xrotation Yrotation Zrotation
						End Site
						{
							OFFSET 0.000000 0.050000 0.000000
						}
					}
				}
			}
		}
	}
}
MOTION
Frames: 8
Frame Time: 0.03333333
0.603789 -0.015705 -0.239039 0.000000 0.000000 0.000000 4.132029 2.908377 5.600478 4.083974 -2.818991 0.671113 -9.510955 -0.105125 17.919415 -0.000000 0.000000 -0.000000 -15.779320 -3.117679 -1.001099 -21.380762 -8.664907 -0.770475 -0.000000 0.000000 -0.000000 -7.330230 -3.949431 6.829315 -18.890420 5.028133 -5.305191 0.000000 0.000000 0.000000 -15.895434 0.570154 4.609429 4.158607 3.462896 0.206396 -0.593691 -9.181283 8.494060 -0.000000 0.000000 0.000000 -0.000000 0.000000 0.000000 -0.000000 0.000000 0.000000 -12.135686 -5.175943 -22.196500 6.906017 -4.728201 -1.477894 -8.856042 -10.354153 25.863472 -0.000000 0.000000 0.000000 -0.000000 0.000000 0.000000 -0.000000 0.000000 0.000000
0.586707 -0.003584 -0.199916 0.000000 0.000000 0.000000 4.014432 2.874965 5.626079 3.925253 -2.753567 0.626900 -9.219797 -0.187973 19.124064 0.000000 0.000000 -0.000000 -15.634913 -3.387053 -0.692397 -22.689689 -8.757529 -0.971521 0.000000 0.000000 -0.000000 -6.957692 -4.109336 7.139671 -19.583463 4.553352 -4.978276 -0.000000 0.000000 0.000000 -15.196652 0.391186 3.325584 3.888503 3.550426 1.083016 -2.575952 -7.412418 6.256635 0.000000 0.000000 -0.000000 0.000000 0.000000 -0.000000 0.000000 0.000000 -0.000000 -10.403731 -5.516126 -22.417068 5.110591 -4.503345 -0.250170 -11.364085 -6.507795 20.973418 0.000000 0.000000 0.000000 0.000000 0.000000 0.000000 0.000000 0.000000 0.000000
0.572119 0.004859 -0.169399 0.000000 0.000000 0.000000 3.765418 2.437089 5.826262 3.855482 -2.207295 0.247929 -8.860285 -0.380689 19.951298 -0.000000 0.000000 -0.000000 -15.318938 -3.680292 -0.435389 -23.370088 -8.893872 -1.047652 -0.000000 0.000000 0.000000 -6.876138 -4.340542 7.661080 -19.309072 4.200966 -5.106859 0.000000 0.000000 -0.000000 -14.329198 0.662246 2.281046 3.516866 3.636415 1.749307 -3.616353 -6.532471 4.825024 -0.000000 0.000000 0.000000 -0.000000 0.000000 0.000000 -0.000000 0.000000 0.000000 -9.549263 -5.184796 -22.482139 4.383136 -4.282571 0.396838 -11.528936 -5.083689 18.412999 0.000000 0.000000 -0.000000 0.000000 0.000000 -0.000000 0.000000 0.000000 -0.000000
0.551943 0.011498 -0.141131 0.000000 0.000000 0.000000 3.691176 2.516179 5.524806 3.498878 -2.354877 0.184857 -8.419051 -0.363938 20.624316 0.000000 0.000000 0.000000 -14.965781 -3.917721 0.243773 -24.166753 -8.776175 -1.256778 -0.000000 0.000000 0.000000 -6.087404 -4.297959 7.803036 -19.989200 3.663648 -4.500551 -0.000000 0.000000 -0.000000 -13.889987 0.377633 1.867956 3.484947 3.593500 2.079380 -3.620491 -5.209641 3.664533 -0.000000 0.000000 -0.000000 -0.000000 0.000000 -0.000000 -0.000000 0.000000 -0.000000 -8.666656 -5.435605 -22.005803 3.507135 -3.969286 1.197826 -12.800998 -1.770403 13.632462 0.000000 0.000000 -0.000000 0.000000 0.000000 -0.000000 0.000000 0.000000 -0.000000
0.527538 0.015894 -0.110210 0.000000 0.000000 0.000000 3.394603 2.709441 5.207328 3.359550 -2.683907 0.064667 -7.981720 -0.307683 21.341835 -0.000000 0.000000 0.000000 -14.501537 -3.967351 0.798143 -24.801236 -8.550393 -1.380208 -0.000000 0.000000 0.000000 -5.919898 -4.024880 7.802341 -20.087696 2.915165 -3.860796 0.000000 0.000000 -0.000000 -12.940047 -0.055506 1.513954 3.682169 3.464486 2.272642 -5.142518 -6.968003 4.125375 -0.000000 0.000000 -0.000000 -0.000000 0.000000 -0.000000 -0.000000 0.000000 -0.000000 -7.124309 -5.890641 -21.489696 1.995062 -3.938021 1.753158 -13.408857 3.495002 7.933021 0.000000 0.000000 0.000000 0.000000 0.000000 0.000000 0.000000 0.000000 0.000000
0.498108 0.019926 -0.060825 0.000000 0.000000 0.000000 2.847792 2.902105 5.104841 3.939412 -2.963210 -0.421510 -8.027952 -0.342088 21.708626 0.000000 0.000000 -0.000000 -14.687217 -3.988675 1.252702 -24.318690 -8.797547 -1.237071 -0.000000 0.000000 -0.000000 -6.754224 -3.855390 8.299716 -19.733729 2.618391 -3.734738 -0.000000 0.000000 0.000000 -10.432559 -0.560166 1.001335 2.426066 3.436560 2.367295 -6.731129 -8.073381 4.445561 0.000000 0.000000 -0.000000 0.000000 0.000000 -0.000000 0.000000 0.000000 -0.000000 -4.098900 -6.597918 -21.293126 0.132372 -4.062283 2.331293 -13.369142 6.454909 2.948286 0.000000 0.000000 -0.000000 0.000000 0.000000 -0.000000 0.000000 0.000000 -0.000000
0.466885 0.022146 -0.002175 0.000000 0.000000 0.000000 2.650856 3.084868 4.944719 4.060536 -3.277091 -0.835233 -7.967138 -0.278570 21.593157 -0.000000 0.000000 -0.000000 -15.050924 -3.949171 1.667426 -24.110455 -9.132300 -1.094472 0.000000 0.000000 -0.000000 -7.058292 -3.593807 8.469739 -19.942480 2.153935 -3.197196 0.000000 0.000000 -0.000000 -9.058446 -0.961017 0.669655 1.892176 3.203955 2.147807 -6.892923 -6.626801 3.778442 -0.000000 0.000000 -0.000000 -0.000000 0.000000 -0.000000 -0.000000 0.000000 -0.000000 -0.460198 -7.474275 -21.163261 -2.287528 -4.434118 2.848125 -14.058371 9.576342 -0.955206 0.000000 0.000000 0.000000 0.000000 0.000000 0.000000 0.000000 0.000000 0.000000
0.440799 0.023071 0.051275 0.000000 0.000000 0.000000 2.137744 3.192070 5.226697 4.359131 -3.449416 -1.480233 -7.784872 -0.311555 21.432509 -0.000000 0.000000 0.000000 -15.340442 -3.940876 1.790521 -23.372029 -9.230631 -0.946475 -0.000000 0.000000 0.000000 -7.096447 -3.602242 8.884203 -20.245709 2.032483 -3.035275 -0.000000 0.000000 0.000000 -6.360163 -1.313273 0.127069 0.291757 3.071915 1.860774 -7.623580 -4.432279 2.798490 0.000000 0.000000 -0.000000 0.000000 0.000000 -0.000000 0.000000 0.000000 -0.000000 4.546896 -8.507624 -21.336437 -5.712392 -5.087928 3.308728 -14.949459 13.693740 -4.126361 0.000000 0.000000 -0.000000 0.000000 0.000000 -0.000000 0.000000 0.000000 -0.000000
